<svg width="692" height="495" viewBox="0 0 692 495" fill="none" xmlns="http://www.w3.org/2000/svg">
<rect width="692" height="495" fill="#131518"/>
<path d="M562.924 309.317L454.293 359.773L345.662 309.317" stroke="#343940" stroke-width="1.54598" stroke-linecap="round" stroke-linejoin="round" stroke-dasharray="3.09 6.18"/>
<path d="M237.708 360.895L346.34 411.351L282.135 440.425" stroke="#343940" stroke-width="1.54598" stroke-linecap="round" stroke-linejoin="round" stroke-dasharray="3.09 6.18"/>
<path d="M454.293 360.895L345.662 411.351L406.836 439.73" stroke="#343940" stroke-width="1.54598" stroke-linecap="round" stroke-linejoin="round" stroke-dasharray="3.09 6.18"/>
<path d="M346.346 309.317L237.715 359.773L129.083 309.317" stroke="#343940" stroke-width="1.54598" stroke-linecap="round" stroke-linejoin="round" stroke-dasharray="3.09 6.18"/>
<path d="M458.896 362.022L559.064 410.762" stroke="#343940" stroke-width="1.54598" stroke-linecap="round" stroke-linejoin="round" stroke-dasharray="3.09 6.18"/>
<path d="M235.748 360.434L130.75 410.764" stroke="#343940" stroke-width="1.54598" stroke-linecap="round" stroke-linejoin="round" stroke-dasharray="3.09 6.18"/>
<path fill-rule="evenodd" clip-rule="evenodd" d="M344.972 113.176C303.022 113.176 269 126.6 269 143.152C269 159.704 303.022 173.128 344.972 173.128C386.921 173.128 420.943 159.704 420.943 143.152C420.943 126.6 386.921 113.176 344.972 113.176Z" fill="#131518"/>
<path fill-rule="evenodd" clip-rule="evenodd" d="M344.972 113.176C303.022 113.176 269 126.6 269 143.152C269 159.704 303.022 173.128 344.972 173.128C386.921 173.128 420.943 159.704 420.943 143.152C420.943 126.6 386.921 113.176 344.972 113.176Z" fill="#131518" stroke="#89919F" stroke-width="1.54598"/>
<mask id="mask0_8011_6744" style="mask-type:luminance" maskUnits="userSpaceOnUse" x="269" y="112" width="152" height="61">
<path d="M344.977 113.176C303.592 113.176 270.027 126.27 270.027 142.416C270.027 158.561 303.592 171.655 344.977 171.655C386.363 171.655 419.927 158.561 419.927 142.416C419.927 126.27 386.363 113.176 344.977 113.176Z" fill="white" stroke="white" stroke-width="1.5252"/>
</mask>
<g mask="url(#mask0_8011_6744)">
<path d="M344.982 185.982C311.393 185.982 284.163 173.424 284.163 157.933C284.163 142.441 311.393 129.883 344.982 129.883C378.572 129.883 405.802 142.441 405.802 157.933C405.802 173.424 378.572 185.982 344.982 185.982Z" stroke="#298DFF" stroke-width="1.22016"/>
<path d="M344.981 175.923C326.561 175.923 311.628 170.026 311.628 162.751C311.628 155.476 326.561 149.579 344.981 149.579C363.401 149.579 378.333 155.476 378.333 162.751C378.333 170.026 363.401 175.923 344.981 175.923Z" stroke="#298DFF" stroke-width="1.22016"/>
<path d="M344.977 178.98C335.658 178.98 328.104 175.997 328.104 172.316C328.104 168.636 335.658 165.653 344.977 165.653C354.295 165.653 361.849 168.636 361.849 172.316C361.849 175.997 354.295 178.98 344.977 178.98Z" fill="#131518" stroke="#298DFF" stroke-width="1.22016"/>
</g>
<path d="M419.841 142.036C406.82 142.075 370.376 154.263 360.148 171.647" stroke="#298DFF" stroke-width="1.22016"/>
<path d="M270.456 139.666C283.22 139.51 320.136 151.151 330.451 168.692" stroke="#298DFF" stroke-width="1.22016"/>
<path d="M383.646 117.442C373.074 124.552 349.394 152.64 346.945 172.407" stroke="#298DFF" stroke-width="1.22016"/>
<path d="M308.534 116.93C319.364 124.392 342.915 152.519 345.365 172.325" stroke="#298DFF" stroke-width="1.22016"/>
<mask id="path-17-inside-1_8011_6744" fill="white">
<path d="M356.139 161.863L356.13 161.867V181.571L339.833 190.011V169.698L339.832 169.699V190.011L323.162 181.571V161.864L323.211 161.886L323.162 161.863L340.167 153.282L356.139 161.863Z"/>
</mask>
<path d="M356.139 161.863L356.13 161.867V181.571L339.833 190.011V169.698L339.832 169.699V190.011L323.162 181.571V161.864L323.211 161.886L323.162 161.863L340.167 153.282L356.139 161.863Z" fill="#131518"/>
<path d="M356.139 161.863L356.767 163.275L359.65 161.994L356.871 160.501L356.139 161.863ZM356.13 161.867L355.503 160.454L354.584 160.862V161.867H356.13ZM356.13 181.571L356.841 182.944L357.676 182.511V181.571H356.13ZM339.833 190.011H338.287V192.553L340.543 191.384L339.833 190.011ZM339.833 169.698H341.378V165.966L338.739 168.605L339.833 169.698ZM339.832 169.699L338.738 168.606L338.286 169.058V169.699H339.832ZM339.832 190.011L339.133 191.39L341.377 192.527V190.011H339.832ZM323.162 181.571H321.616V182.521L322.463 182.95L323.162 181.571ZM323.162 161.864L323.797 160.455L321.616 159.471V161.864H323.162ZM323.211 161.886L322.576 163.295L323.87 160.487L323.211 161.886ZM323.162 161.863L322.465 160.483L319.634 161.911L322.503 163.262L323.162 161.863ZM340.167 153.282L340.899 151.92L340.19 151.539L339.471 151.902L340.167 153.282ZM356.139 161.863L355.511 160.45L355.503 160.454L356.13 161.867L356.758 163.279L356.767 163.275L356.139 161.863ZM356.13 161.867H354.584V181.571H356.13H357.676V161.867H356.13ZM356.13 181.571L355.419 180.198L339.122 188.638L339.833 190.011L340.543 191.384L356.841 182.944L356.13 181.571ZM339.833 190.011H341.378V169.698H339.833H338.287V190.011H339.833ZM339.833 169.698L338.739 168.605L338.738 168.606L339.832 169.699L340.925 170.792L340.926 170.791L339.833 169.698ZM339.832 169.699H338.286V190.011H339.832H341.377V169.699H339.832ZM339.832 190.011L340.53 188.632L323.86 180.192L323.162 181.571L322.463 182.95L339.133 191.39L339.832 190.011ZM323.162 181.571H324.708V161.864H323.162H321.616V181.571H323.162ZM323.162 161.864L322.526 163.273L322.576 163.295L323.211 161.886L323.847 160.477L323.797 160.455L323.162 161.864ZM323.211 161.886L323.87 160.487L323.82 160.464L323.162 161.863L322.503 163.262L322.553 163.285L323.211 161.886ZM323.162 161.863L323.858 163.243L340.864 154.662L340.167 153.282L339.471 151.902L322.465 160.483L323.162 161.863ZM340.167 153.282L339.436 154.644L355.408 163.225L356.139 161.863L356.871 160.501L340.899 151.92L340.167 153.282Z" fill="#298DFF" mask="url(#path-17-inside-1_8011_6744)"/>
<line x1="340.185" y1="169.02" x2="340.185" y2="189.349" stroke="#298DFF" stroke-width="1.54598"/>
<path d="M323.339 162.187L340.062 169.821" stroke="#298DFF" stroke-width="1.54598"/>
<path d="M356.14 162.187L339.417 169.821" stroke="#298DFF" stroke-width="1.54598"/>
<path fill-rule="evenodd" clip-rule="evenodd" d="M309.325 363.174C305.874 354.891 320.393 347.05 341.695 345.835C362.878 344.51 382.99 350.253 386.322 358.646C389.773 366.929 375.255 374.659 353.953 375.984C332.77 377.199 312.658 371.567 309.325 363.174Z" fill="#131518" stroke="#298DFF" stroke-width="1.54598"/>
<path d="M334.363 361.057L345.312 368.433L361.736 353.953" stroke="#298DFF" stroke-width="1.54598"/>
<mask id="path-24-inside-2_8011_6744" fill="white">
<path d="M291.717 362.175L291.708 362.179V381.883L275.411 390.324V370.01L275.41 370.011V390.324L258.74 381.883V362.176L258.79 362.199L258.74 362.175L275.746 353.594L291.717 362.175Z"/>
</mask>
<path d="M291.717 362.175L291.708 362.179V381.883L275.411 390.324V370.01L275.41 370.011V390.324L258.74 381.883V362.176L258.79 362.199L258.74 362.175L275.746 353.594L291.717 362.175Z" fill="#131518"/>
<path d="M291.717 362.175L292.345 363.588L295.228 362.307L292.449 360.813L291.717 362.175ZM291.708 362.179L291.081 360.767L290.163 361.175V362.179H291.708ZM291.708 381.883L292.419 383.256L293.254 382.824V381.883H291.708ZM275.411 390.324H273.865V392.865L276.122 391.696L275.411 390.324ZM275.411 370.01H276.957V366.278L274.318 368.917L275.411 370.01ZM275.41 370.011L274.317 368.918L273.864 369.371V370.011H275.41ZM275.41 390.324L274.711 391.703L276.956 392.839V390.324H275.41ZM258.74 381.883H257.194V382.833L258.041 383.263L258.74 381.883ZM258.74 362.176L259.375 360.767L257.194 359.783V362.176H258.74ZM258.79 362.199L258.154 363.608L259.448 360.8L258.79 362.199ZM258.74 362.175L258.043 360.795L255.212 362.224L258.081 363.574L258.74 362.175ZM275.746 353.594L276.477 352.232L275.768 351.851L275.049 352.214L275.746 353.594ZM291.717 362.175L291.089 360.763L291.081 360.767L291.708 362.179L292.336 363.592L292.345 363.588L291.717 362.175ZM291.708 362.179H290.163V381.883H291.708H293.254V362.179H291.708ZM291.708 381.883L290.998 380.511L274.7 388.951L275.411 390.324L276.122 391.696L292.419 383.256L291.708 381.883ZM275.411 390.324H276.957V370.01H275.411H273.865V390.324H275.411ZM275.411 370.01L274.318 368.917L274.317 368.918L275.41 370.011L276.503 371.104L276.504 371.103L275.411 370.01ZM275.41 370.011H273.864V390.324H275.41H276.956V370.011H275.41ZM275.41 390.324L276.108 388.945L259.438 380.504L258.74 381.883L258.041 383.263L274.711 391.703L275.41 390.324ZM258.74 381.883H260.286V362.176H258.74H257.194V381.883H258.74ZM258.74 362.176L258.104 363.586L258.154 363.608L258.79 362.199L259.425 360.789L259.375 360.767L258.74 362.176ZM258.79 362.199L259.448 360.8L259.398 360.777L258.74 362.175L258.081 363.574L258.131 363.598L258.79 362.199ZM258.74 362.175L259.436 363.555L276.442 354.974L275.746 353.594L275.049 352.214L258.043 360.795L258.74 362.175ZM275.746 353.594L275.014 354.956L290.986 363.537L291.717 362.175L292.449 360.813L276.477 352.232L275.746 353.594Z" fill="#298DFF" mask="url(#path-24-inside-2_8011_6744)"/>
<line x1="275.771" y1="369.333" x2="275.771" y2="389.661" stroke="#298DFF" stroke-width="1.54598"/>
<path d="M258.917 362.499L275.641 370.133" stroke="#298DFF" stroke-width="1.54598"/>
<path d="M291.719 362.499L274.995 370.133" stroke="#298DFF" stroke-width="1.54598"/>
<mask id="path-29-inside-3_8011_6744" fill="white">
<path d="M484.655 394.976L484.646 394.98V414.684L468.348 423.125V402.811L468.347 402.812V423.125L451.677 414.684V394.977L451.727 395L451.677 394.976L468.683 386.395L484.655 394.976Z"/>
</mask>
<path d="M484.655 394.976L484.646 394.98V414.684L468.348 423.125V402.811L468.347 402.812V423.125L451.677 414.684V394.977L451.727 395L451.677 394.976L468.683 386.395L484.655 394.976Z" fill="#131518"/>
<path d="M484.655 394.976L485.283 396.389L488.166 395.107L485.386 393.614L484.655 394.976ZM484.646 394.98L484.018 393.567L483.1 393.975V394.98H484.646ZM484.646 414.684L485.357 416.057L486.192 415.624V414.684H484.646ZM468.348 423.125H466.802V425.666L469.059 424.497L468.348 423.125ZM468.348 402.811H469.894V399.079L467.255 401.718L468.348 402.811ZM468.347 402.812L467.254 401.719L466.801 402.172V402.812H468.347ZM468.347 423.125L467.649 424.504L469.893 425.64V423.125H468.347ZM451.677 414.684H450.131V415.634L450.979 416.063L451.677 414.684ZM451.677 394.977L452.313 393.568L450.131 392.584V394.977H451.677ZM451.727 395L451.092 396.409L452.385 393.601L451.727 395ZM451.677 394.976L450.981 393.596L448.15 395.025L451.019 396.375L451.677 394.976ZM468.683 386.395L469.415 385.033L468.706 384.652L467.987 385.015L468.683 386.395ZM484.655 394.976L484.027 393.563L484.018 393.567L484.646 394.98L485.274 396.393L485.283 396.389L484.655 394.976ZM484.646 394.98H483.1V414.684H484.646H486.192V394.98H484.646ZM484.646 414.684L483.935 413.311L467.637 421.752L468.348 423.125L469.059 424.497L485.357 416.057L484.646 414.684ZM468.348 423.125H469.894V402.811H468.348H466.802V423.125H468.348ZM468.348 402.811L467.255 401.718L467.254 401.719L468.347 402.812L469.44 403.905L469.441 403.904L468.348 402.811ZM468.347 402.812H466.801V423.125H468.347H469.893V402.812H468.347ZM468.347 423.125L469.045 421.745L452.376 413.305L451.677 414.684L450.979 416.063L467.649 424.504L468.347 423.125ZM451.677 414.684H453.223V394.977H451.677H450.131V414.684H451.677ZM451.677 394.977L451.042 396.386L451.092 396.409L451.727 395L452.363 393.59L452.313 393.568L451.677 394.977ZM451.727 395L452.385 393.601L452.335 393.577L451.677 394.976L451.019 396.375L451.069 396.398L451.727 395ZM451.677 394.976L452.374 396.356L469.38 387.775L468.683 386.395L467.987 385.015L450.981 393.596L451.677 394.976ZM468.683 386.395L467.951 387.757L483.923 396.338L484.655 394.976L485.386 393.614L469.415 385.033L468.683 386.395Z" fill="#298DFF" mask="url(#path-29-inside-3_8011_6744)"/>
<line x1="468.7" y1="402.133" x2="468.7" y2="422.462" stroke="#298DFF" stroke-width="1.54598"/>
<path d="M451.855 395.3L468.578 402.934" stroke="#298DFF" stroke-width="1.54598"/>
<path d="M484.656 395.3L467.933 402.934" stroke="#298DFF" stroke-width="1.54598"/>
<mask id="path-34-inside-4_8011_6744" fill="white">
<path d="M403.327 319.234L403.318 319.238V338.942L387.02 347.382V327.069L387.019 327.07V347.382L370.349 338.942V319.235L370.399 319.257L370.349 319.234L387.355 310.653L403.327 319.234Z"/>
</mask>
<path d="M403.327 319.234L403.318 319.238V338.942L387.02 347.382V327.069L387.019 327.07V347.382L370.349 338.942V319.235L370.399 319.257L370.349 319.234L387.355 310.653L403.327 319.234Z" fill="#131518"/>
<path d="M403.327 319.234L403.955 320.647L406.838 319.365L404.058 317.872L403.327 319.234ZM403.318 319.238L402.69 317.825L401.772 318.233V319.238H403.318ZM403.318 338.942L404.029 340.315L404.864 339.882V338.942H403.318ZM387.02 347.382H385.474V349.924L387.731 348.755L387.02 347.382ZM387.02 327.069H388.566V323.337L385.927 325.976L387.02 327.069ZM387.019 327.07L385.926 325.977L385.473 326.429V327.07H387.019ZM387.019 347.382L386.321 348.762L388.565 349.898V347.382H387.019ZM370.349 338.942H368.803V339.892L369.651 340.321L370.349 338.942ZM370.349 319.235L370.985 317.826L368.803 316.842V319.235H370.349ZM370.399 319.257L369.763 320.667L371.057 317.859L370.399 319.257ZM370.349 319.234L369.653 317.854L366.821 319.282L369.691 320.633L370.349 319.234ZM387.355 310.653L388.087 309.291L387.377 308.91L386.659 309.273L387.355 310.653ZM403.327 319.234L402.699 317.821L402.69 317.825L403.318 319.238L403.946 320.65L403.955 320.647L403.327 319.234ZM403.318 319.238H401.772V338.942H403.318H404.864V319.238H403.318ZM403.318 338.942L402.607 337.569L386.309 346.01L387.02 347.382L387.731 348.755L404.029 340.315L403.318 338.942ZM387.02 347.382H388.566V327.069H387.02H385.474V347.382H387.02ZM387.02 327.069L385.927 325.976L385.926 325.977L387.019 327.07L388.112 328.163L388.113 328.162L387.02 327.069ZM387.019 327.07H385.473V347.382H387.019H388.565V327.07H387.019ZM387.019 347.382L387.717 346.003L371.047 337.563L370.349 338.942L369.651 340.321L386.321 348.762L387.019 347.382ZM370.349 338.942H371.895V319.235H370.349H368.803V338.942H370.349ZM370.349 319.235L369.714 320.644L369.763 320.667L370.399 319.257L371.034 317.848L370.985 317.826L370.349 319.235ZM370.399 319.257L371.057 317.859L371.007 317.835L370.349 319.234L369.691 320.633L369.741 320.656L370.399 319.257ZM370.349 319.234L371.046 320.614L388.051 312.033L387.355 310.653L386.659 309.273L369.653 317.854L370.349 319.234ZM387.355 310.653L386.623 312.015L402.595 320.596L403.327 319.234L404.058 317.872L388.087 309.291L387.355 310.653Z" fill="#298DFF" mask="url(#path-34-inside-4_8011_6744)"/>
<line x1="387.372" y1="326.391" x2="387.372" y2="346.72" stroke="#298DFF" stroke-width="1.54598"/>
<path d="M370.527 319.558L387.25 327.192" stroke="#298DFF" stroke-width="1.54598"/>
<path d="M403.328 319.558L386.605 327.192" stroke="#298DFF" stroke-width="1.54598"/>
<path fill-rule="evenodd" clip-rule="evenodd" d="M344.972 173.295C388.766 173.295 410.009 158.672 410.009 158.672C347.208 214.456 349.448 237.611 405.993 288.733C410.294 292.622 416.826 297.469 418.882 300.879C420.23 303.114 420.943 305.448 420.943 307.853C420.943 324.405 386.921 337.789 344.972 337.789C303.022 337.789 269 324.405 269 307.853C269 302.151 273.086 297.728 279.978 292.331C339.191 239.25 343.327 214.937 279.978 158.672C279.978 158.672 301.178 173.295 344.972 173.295Z" fill="#131518" stroke="#89919F" stroke-width="1.54598"/>
<path d="M373.786 290.712C374.415 291.193 375.223 291.386 376.211 291.29C377.199 291.193 378.007 290.905 378.725 290.328C379.444 289.751 379.893 288.981 380.342 287.923C380.701 286.961 380.881 285.711 380.881 284.364C380.881 282.921 380.701 281.767 380.342 280.805C379.893 279.844 379.354 279.17 378.725 278.785C378.007 278.305 377.109 278.112 376.211 278.208C375.223 278.305 374.415 278.593 373.697 279.17C372.978 279.747 372.439 280.517 372.08 281.575C371.721 282.537 371.541 283.787 371.541 285.134C371.541 286.576 371.721 287.731 372.08 288.693C372.439 289.654 372.978 290.328 373.697 290.809L373.786 290.712ZM373.786 287.346C373.607 286.673 373.517 285.903 373.517 284.941C373.517 283.402 373.786 282.152 374.235 281.286C374.684 280.421 375.313 279.94 376.121 279.844C376.75 279.747 377.289 279.94 377.738 280.421L373.786 287.346ZM376.121 289.654C375.582 289.654 375.044 289.462 374.595 289.077L378.546 282.152C378.725 282.825 378.815 283.595 378.815 284.46C378.815 286.096 378.546 287.346 378.097 288.212C377.648 289.077 377.019 289.558 376.121 289.654ZM390.22 287.827V289.558L398.841 288.212V286.48L395.698 286.961V276.092L394.082 276.285L393.992 276.669C393.902 276.958 393.812 277.343 393.633 277.535C393.453 277.824 393.184 278.016 392.914 278.112C392.555 278.305 392.106 278.401 391.657 278.497L390.4 278.689V280.421L393.722 279.94V287.25L390.22 287.827ZM409.258 285.615C409.977 285.999 410.695 286.096 411.683 285.807C412.671 285.615 413.479 285.23 414.108 284.557C414.826 283.883 415.365 283.018 415.724 281.96C416.083 280.902 416.263 279.747 416.263 278.305C416.263 276.862 416.083 275.804 415.724 274.842C415.365 273.976 414.826 273.303 414.108 273.014C413.389 272.63 412.581 272.533 411.683 272.822C410.695 273.014 409.887 273.399 409.169 274.072C408.54 274.746 408.001 275.611 407.642 276.669C407.283 277.727 407.103 278.978 407.103 280.324C407.103 281.767 407.283 282.921 407.642 283.787C408.001 284.653 408.54 285.326 409.169 285.615H409.258ZM409.258 282.152C409.079 281.575 408.989 280.805 408.989 279.844C408.989 278.305 409.258 277.054 409.707 276.092C410.156 275.13 410.785 274.553 411.593 274.457C412.222 274.265 412.761 274.361 413.12 274.746L409.258 282.152ZM411.593 284.172C411.054 284.268 410.516 284.172 410.067 283.883L414.018 276.381C414.108 277.054 414.197 277.824 414.197 278.689C414.197 280.324 414.018 281.575 413.569 282.537C413.12 283.402 412.491 283.979 411.593 284.172ZM426.68 281.19C427.309 281.479 428.117 281.479 429.015 281.094C430.003 280.805 430.721 280.324 431.44 279.555C432.068 278.882 432.607 277.92 432.966 276.862C433.325 275.804 433.505 274.553 433.505 273.111C433.505 271.668 433.325 270.61 432.966 269.744C432.607 268.878 432.068 268.301 431.44 268.013C430.721 267.724 429.913 267.82 429.015 268.109C428.117 268.397 427.309 268.878 426.59 269.648C425.962 270.321 425.423 271.283 425.064 272.341C424.704 273.495 424.525 274.746 424.525 276.092C424.525 277.535 424.704 278.593 425.064 279.459C425.423 280.324 425.962 280.902 426.59 281.19H426.68ZM426.68 277.727C426.5 277.054 426.5 276.381 426.5 275.419C426.5 273.88 426.68 272.533 427.129 271.572C427.578 270.61 428.207 269.936 429.015 269.744C429.554 269.552 430.093 269.552 430.452 269.84L426.68 277.727ZM429.015 279.459C428.386 279.651 427.937 279.651 427.488 279.266L431.35 271.475C431.44 272.149 431.529 272.822 431.529 273.784C431.529 275.323 431.26 276.669 430.901 277.631C430.452 278.593 429.823 279.17 429.015 279.459ZM443.653 274.938C444.281 275.13 445 275.034 445.898 274.553C446.796 274.169 447.514 273.495 448.143 272.726C448.771 271.86 449.221 270.898 449.58 269.744C449.939 268.59 450.119 267.339 450.119 265.993C450.119 264.55 449.939 263.492 449.58 262.626C449.221 261.857 448.771 261.376 448.143 261.184C447.514 260.991 446.706 261.087 445.898 261.568C445 261.953 444.192 262.626 443.563 263.396C442.934 264.261 442.485 265.223 442.126 266.378C441.767 267.532 441.587 268.782 441.587 270.129C441.587 271.572 441.767 272.63 442.126 273.495C442.485 274.265 442.934 274.746 443.563 274.938H443.653ZM443.653 271.475C443.473 270.898 443.473 270.129 443.473 269.263C443.473 267.628 443.653 266.281 444.012 265.32C444.461 264.261 445.09 263.588 445.808 263.203C446.437 262.915 446.886 262.915 447.245 263.107L443.653 271.475ZM445.808 272.918C445.269 273.207 444.82 273.207 444.461 272.918L448.053 264.646C448.143 265.223 448.233 265.993 448.233 266.858C448.233 268.494 448.053 269.744 447.604 270.802C447.245 271.86 446.616 272.533 445.808 272.918ZM458.38 265.704V267.436L465.475 262.049V260.318L462.871 262.338V251.373L461.613 252.334L461.523 252.719C461.434 253.104 461.344 253.489 461.164 253.777C460.985 254.162 460.805 254.451 460.536 254.739C460.266 255.124 459.907 255.412 459.548 255.701L458.56 256.47V258.202L461.254 256.182V263.588L458.38 265.704ZM471.581 252.815V254.547L475.443 246.179V244.447L474.006 247.525V236.56L473.288 238.099V238.484C473.198 238.965 473.108 239.349 473.108 239.734C473.018 240.119 472.928 240.504 472.749 240.985C472.569 241.369 472.39 241.85 472.21 242.331L471.671 243.582V245.217L473.108 242.043V249.449L471.581 252.815ZM473.916 234.252V235.983L469.246 228.096V226.364L470.953 229.25V218.381L471.851 219.728V220.209C471.941 220.593 472.03 220.978 472.12 221.363C472.21 221.747 472.3 222.132 472.479 222.517C472.659 222.998 472.928 223.383 473.198 223.864L473.826 225.018V226.653L472.12 223.671V231.077L473.916 234.252ZM461.164 220.112C460.625 220.305 459.907 220.016 459.099 219.535C458.291 218.958 457.572 218.189 456.944 217.323C456.405 216.457 455.956 215.399 455.596 214.149C455.327 212.995 455.147 211.744 455.147 210.301C455.147 208.859 455.327 207.801 455.596 207.031C455.956 206.262 456.405 205.877 456.944 205.781C457.572 205.685 458.291 205.877 459.099 206.454C459.907 207.031 460.625 207.704 461.254 208.666C461.793 209.532 462.242 210.59 462.601 211.744C462.871 212.995 463.05 214.245 463.05 215.688C463.05 217.034 462.871 218.092 462.601 218.862C462.242 219.631 461.793 220.112 461.254 220.209L461.164 220.112ZM461.164 216.746C461.344 216.073 461.344 215.399 461.344 214.437C461.344 212.898 461.164 211.552 460.805 210.494C460.446 209.34 459.817 208.57 459.099 208.089C458.56 207.704 458.201 207.608 457.842 207.897L461.164 216.746ZM459.099 217.804C459.638 218.189 460.087 218.285 460.446 218.092L457.033 209.243C456.944 209.82 456.854 210.59 456.854 211.456C456.854 213.091 457.123 214.437 457.482 215.495C457.842 216.553 458.38 217.323 459.099 217.9V217.804ZM446.706 210.398V212.129L438.624 208.474V206.839L441.677 208.089V197.22L443.114 197.797V198.182C443.294 198.567 443.383 198.952 443.563 199.24C443.743 199.529 443.922 199.817 444.192 200.01C444.551 200.298 444.91 200.49 445.359 200.683L446.526 201.26V202.991L443.473 201.549V208.955L446.706 210.398ZM428.566 204.53C427.937 204.819 427.129 204.819 426.231 204.53C425.243 204.242 424.525 203.761 423.806 203.088C423.178 202.318 422.639 201.452 422.28 200.394C421.921 199.24 421.741 197.99 421.741 196.643C421.741 195.2 421.921 194.142 422.28 193.18C422.639 192.315 423.178 191.738 423.806 191.449C424.525 191.161 425.333 191.161 426.231 191.449C427.129 191.738 427.937 192.219 428.656 192.988C429.284 193.661 429.823 194.527 430.182 195.681C430.542 196.739 430.721 197.99 430.721 199.336C430.721 200.779 430.542 201.933 430.182 202.799C429.823 203.665 429.374 204.242 428.656 204.53H428.566ZM428.566 201.068C428.746 200.394 428.835 199.625 428.835 198.759C428.835 197.124 428.566 195.874 428.117 194.912C427.758 193.95 427.129 193.373 426.231 193.084C425.692 192.892 425.153 192.988 424.794 193.277L428.566 201.068ZM426.231 202.895C426.86 202.991 427.398 202.991 427.758 202.607L423.896 194.912C423.806 195.585 423.717 196.355 423.717 197.22C423.717 198.759 423.986 200.106 424.345 201.068C424.794 202.029 425.423 202.607 426.231 202.895ZM412.491 198.952V200.683L403.96 198.759V197.028L407.193 197.797V186.832L408.72 187.121L408.809 187.505C408.899 187.89 408.989 188.179 409.169 188.467C409.348 188.756 409.618 188.948 409.887 189.141C410.246 189.333 410.695 189.429 411.144 189.525L412.401 189.814V191.545L409.169 190.776V198.182L412.491 198.952ZM393.543 196.547C392.914 196.932 392.016 197.028 391.118 196.932C390.13 196.835 389.322 196.451 388.604 195.874C387.975 195.296 387.436 194.431 387.077 193.469C386.628 192.411 386.448 191.161 386.448 189.814C386.448 188.371 386.628 187.217 387.077 186.351C387.436 185.389 387.975 184.716 388.604 184.331C389.322 183.85 390.13 183.754 391.118 183.85C392.106 184.043 392.914 184.331 393.633 184.908C394.351 185.582 394.89 186.351 395.249 187.409C395.608 188.371 395.788 189.622 395.788 191.064C395.788 192.411 395.608 193.565 395.249 194.527C394.89 195.489 394.351 196.066 393.633 196.547H393.543ZM393.543 193.084C393.722 192.411 393.812 191.641 393.812 190.776C393.812 189.141 393.543 187.89 393.094 187.025C392.645 186.159 392.016 185.582 391.118 185.486C390.579 185.389 390.041 185.582 389.592 185.966L393.543 193.084ZM391.118 195.296C391.747 195.296 392.286 195.2 392.735 194.816L388.783 187.698C388.604 188.371 388.514 189.141 388.514 190.006C388.514 191.641 388.783 192.892 389.232 193.758C389.681 194.623 390.31 195.2 391.118 195.296ZM304.189 196.162C303.471 196.835 302.663 197.22 301.765 197.316C300.777 197.509 299.969 197.316 299.25 196.932C298.622 196.547 298.083 195.874 297.724 195.008C297.364 194.046 297.095 192.892 297.095 191.449C297.095 190.102 297.364 188.852 297.724 187.794C298.083 186.832 298.622 185.966 299.25 185.389C299.969 184.812 300.777 184.428 301.765 184.235C302.752 184.139 303.561 184.235 304.279 184.62C304.908 185.005 305.447 185.678 305.896 186.64C306.255 187.505 306.434 188.66 306.434 190.102C306.434 191.449 306.255 192.699 305.896 193.758C305.447 194.719 304.998 195.585 304.279 196.162H304.189ZM304.189 192.699C304.369 192.026 304.459 191.257 304.459 190.391C304.459 188.756 304.189 187.602 303.74 186.832C303.291 186.063 302.663 185.774 301.765 185.87C301.226 185.966 300.687 186.255 300.238 186.736L304.189 192.699ZM301.765 195.585C302.393 195.489 302.932 195.2 303.381 194.719L299.43 188.756C299.25 189.429 299.16 190.295 299.16 191.161C299.16 192.699 299.43 193.95 299.879 194.719C300.328 195.489 300.956 195.777 301.765 195.681V195.585ZM286.498 199.336C285.87 200.01 285.061 200.394 284.074 200.587C283.175 200.779 282.367 200.779 281.649 200.394C280.93 200.01 280.481 199.432 280.122 198.567C279.673 197.605 279.494 196.451 279.494 195.104C279.494 193.661 279.673 192.507 280.122 191.353C280.481 190.295 281.02 189.525 281.649 188.852C282.367 188.179 283.175 187.698 284.074 187.505C285.061 187.313 285.87 187.409 286.588 187.698C287.217 188.083 287.755 188.66 288.115 189.622C288.474 190.487 288.743 191.641 288.743 193.084C288.743 194.431 288.474 195.681 288.115 196.739C287.755 197.797 287.306 198.663 286.588 199.336H286.498ZM286.498 195.874C286.678 195.104 286.768 194.335 286.768 193.469C286.768 191.834 286.498 190.68 286.049 190.006C285.6 189.237 284.972 188.948 284.163 189.141C283.535 189.237 282.996 189.622 282.637 190.102L286.498 195.874ZM284.163 198.952C284.792 198.759 285.241 198.471 285.69 197.893L281.739 192.219C281.649 192.892 281.559 193.758 281.559 194.623C281.559 196.162 281.828 197.413 282.188 198.086C282.637 198.855 283.265 199.144 284.163 198.952ZM270.334 202.126V203.857L262.072 206.646V204.915L265.125 203.857V192.988L266.652 192.411L266.742 192.796C266.831 193.084 266.921 193.277 267.101 193.469C267.28 193.661 267.55 193.758 267.819 193.758C268.089 193.758 268.538 193.661 268.987 193.469L270.154 193.084V194.816L267.011 195.874V203.28L270.334 202.126ZM252.194 210.013C251.475 210.782 250.757 211.359 249.859 211.84C248.961 212.225 248.242 212.321 247.524 212.033C246.895 211.84 246.446 211.359 246.087 210.494C245.728 209.724 245.548 208.57 245.548 207.223C245.548 205.781 245.728 204.53 246.087 203.376C246.446 202.222 246.895 201.26 247.614 200.49C248.242 199.721 248.961 199.144 249.859 198.759C250.757 198.278 251.565 198.182 252.194 198.471C252.822 198.663 253.361 199.144 253.72 200.01C254.079 200.779 254.169 201.933 254.169 203.28C254.169 204.723 254.079 205.973 253.72 207.127C253.361 208.282 252.822 209.243 252.194 210.013ZM252.194 206.55C252.283 205.781 252.373 205.011 252.373 204.146C252.373 202.51 252.104 201.452 251.745 200.779C251.296 200.106 250.667 200.01 249.949 200.298C249.32 200.587 248.871 200.971 248.512 201.645L252.194 206.55ZM249.949 210.109C250.487 209.82 250.936 209.436 251.385 208.762L247.703 203.857C247.524 204.626 247.434 205.396 247.434 206.262C247.434 207.897 247.703 209.051 248.152 209.628C248.512 210.301 249.14 210.494 249.949 210.109ZM237.286 216.746V218.477L230.192 223.864V222.132L232.886 220.209V209.243L234.143 208.282L234.233 208.57C234.323 208.859 234.413 209.051 234.502 209.147C234.682 209.243 234.862 209.243 235.131 209.147C235.4 209.051 235.76 208.859 236.209 208.57L237.197 207.801V209.532L234.502 211.552V218.958L237.286 216.746ZM223.367 231.943C223.098 233.194 222.738 234.155 222.289 235.117C221.84 236.079 221.481 236.56 221.212 236.752C220.852 236.945 220.673 236.752 220.493 236.079C220.314 235.502 220.224 234.444 220.224 233.097C220.224 231.655 220.314 230.308 220.493 228.961C220.673 227.615 220.942 226.364 221.212 225.21C221.481 224.056 221.93 222.998 222.289 222.036C222.738 221.074 223.098 220.593 223.457 220.401C223.726 220.209 223.996 220.401 224.175 221.074C224.265 221.651 224.355 222.709 224.355 224.056C224.355 225.499 224.265 226.845 224.175 228.192C223.996 229.539 223.726 230.789 223.457 231.943H223.367ZM223.367 228.577C223.457 227.711 223.457 226.845 223.457 225.98C223.457 224.344 223.367 223.383 223.187 222.998C223.008 222.613 222.738 222.806 222.289 223.575C222.02 224.248 221.84 224.922 221.661 225.787L223.367 228.577ZM222.289 233.386C222.649 232.809 222.828 232.039 223.008 231.27L221.301 228.48C221.212 229.346 221.122 230.116 221.122 231.077C221.122 232.616 221.301 233.674 221.481 234.059C221.661 234.444 221.93 234.252 222.289 233.386ZM221.212 248.102V249.834L225.971 257.721V255.99L224.175 253.104V242.139L223.367 240.696L223.277 240.985C223.277 241.177 223.187 241.369 223.098 241.466C223.008 241.466 222.828 241.466 222.649 241.273C222.469 241.081 222.289 240.792 222.02 240.311L221.301 239.157V240.888L223.098 243.87V251.276L221.212 248.102ZM233.874 264.646C234.502 265.512 235.221 266.281 236.029 266.858C236.837 267.339 237.466 267.628 238.095 267.532C238.723 267.436 239.172 266.955 239.442 266.185C239.801 265.416 239.891 264.358 239.891 262.915C239.891 261.568 239.801 260.222 239.442 259.067C239.172 257.913 238.723 256.855 238.095 255.893C237.466 255.028 236.748 254.258 235.939 253.777C235.131 253.2 234.413 253.008 233.874 253.104C233.245 253.2 232.796 253.585 232.437 254.354C232.168 255.124 231.988 256.182 231.988 257.625C231.988 258.971 232.168 260.318 232.437 261.472C232.796 262.723 233.245 263.684 233.874 264.646ZM233.874 261.184C233.784 260.414 233.694 259.645 233.694 258.779C233.694 257.144 233.874 256.086 234.323 255.509C234.682 254.931 235.221 254.835 235.939 255.316C236.478 255.701 236.927 256.182 237.286 256.855L233.874 261.184ZM235.939 265.127C235.4 264.742 234.951 264.261 234.592 263.588L238.005 259.26C238.095 260.029 238.184 260.895 238.184 261.761C238.184 263.3 238.005 264.454 237.646 265.031C237.197 265.608 236.658 265.608 235.939 265.127ZM248.332 272.149V273.88L256.414 277.439V275.708L253.451 274.457V263.492L251.924 262.819V263.107C251.745 263.396 251.655 263.684 251.475 263.781C251.296 263.973 251.116 263.973 250.847 263.973C250.487 263.973 250.128 263.877 249.679 263.588L248.512 263.107V264.839L251.565 266.185V273.591L248.332 272.149ZM266.382 280.421C267.101 281.094 267.909 281.575 268.807 281.863C269.705 282.152 270.513 282.152 271.232 281.863C271.86 281.575 272.399 280.998 272.758 280.132C273.118 279.266 273.297 278.112 273.297 276.766C273.297 275.323 273.118 274.072 272.758 273.014C272.399 271.956 271.86 270.994 271.232 270.321C270.513 269.648 269.705 269.071 268.807 268.878C267.819 268.59 267.011 268.59 266.382 268.878C265.664 269.167 265.215 269.744 264.856 270.61C264.497 271.475 264.317 272.63 264.317 273.976C264.317 275.419 264.497 276.669 264.856 277.727C265.215 278.785 265.664 279.747 266.382 280.421ZM266.382 276.958C266.293 276.285 266.203 275.419 266.203 274.553C266.203 272.918 266.472 271.86 266.831 271.091C267.28 270.417 267.909 270.225 268.717 270.417C269.346 270.61 269.885 270.994 270.244 271.572L266.382 276.958ZM268.717 280.228C268.178 280.036 267.64 279.651 267.28 279.074L271.052 273.688C271.232 274.361 271.322 275.227 271.322 276.092C271.322 277.727 271.052 278.882 270.603 279.555C270.244 280.228 269.615 280.517 268.717 280.228ZM282.457 283.691V285.422L291.078 287.25V285.518L287.845 284.845V273.88L286.319 273.591L286.229 273.88C286.139 274.169 285.959 274.457 285.87 274.649C285.69 274.842 285.421 274.938 285.061 274.938C284.792 275.034 284.343 274.938 283.894 274.842L282.637 274.553V276.285L285.87 277.054V284.46L282.457 283.691ZM300.148 287.057V288.789L308.769 290.135V288.404L305.536 287.923V276.958L304.01 276.669L303.92 277.054C303.83 277.343 303.65 277.631 303.471 277.824C303.291 278.016 303.112 278.112 302.752 278.208C302.393 278.305 302.034 278.208 301.495 278.208L300.328 278.016V279.651L303.561 280.228V287.538L300.148 287.057ZM317.929 289.27V291.001L326.64 291.771V290.039L323.407 289.751V278.785L321.791 278.689L321.701 278.978C321.611 279.363 321.521 279.555 321.342 279.844C321.162 280.036 320.893 280.132 320.623 280.228C320.264 280.324 319.815 280.324 319.366 280.324L318.109 280.132V281.863L321.342 282.152V289.558L317.929 289.27ZM337.147 291.578C337.865 292.155 338.673 292.444 339.661 292.444C340.649 292.444 341.457 292.251 342.176 291.771C342.804 291.29 343.343 290.52 343.702 289.558C344.062 288.596 344.331 287.442 344.331 285.999C344.331 284.653 344.062 283.499 343.702 282.441C343.343 281.479 342.804 280.709 342.086 280.228C341.457 279.651 340.559 279.363 339.572 279.363C338.673 279.363 337.775 279.555 337.147 280.036C336.428 280.517 335.89 281.286 335.53 282.248C335.081 283.21 334.902 284.364 334.902 285.807C334.902 287.154 335.081 288.404 335.53 289.366C335.89 290.328 336.428 291.097 337.057 291.578H337.147ZM337.147 288.212C337.057 287.442 336.967 286.673 336.967 285.807C336.967 284.172 337.147 283.018 337.596 282.152C338.045 281.382 338.763 280.998 339.572 280.998C340.2 280.998 340.739 281.286 341.098 281.671L337.147 288.212ZM339.572 290.712C338.943 290.712 338.404 290.52 338.045 290.039L341.996 283.595C342.176 284.268 342.266 285.038 342.266 285.903C342.266 287.538 341.996 288.789 341.547 289.558C341.098 290.424 340.47 290.809 339.572 290.809V290.712ZM353.76 290.616V292.251L362.471 292.059V290.328L359.238 290.424V279.459L357.622 279.555L357.532 279.844C357.442 280.228 357.352 280.517 357.173 280.709C356.993 280.902 356.724 281.094 356.365 281.286C356.095 281.382 355.646 281.382 355.107 281.479H353.94V283.21L357.173 283.114V290.52L353.76 290.616Z" fill="#89919F"/>
<path d="M418.216 318.45C438.939 354.788 472.721 368.557 481.543 372.886" stroke="#298DFF" stroke-width="1.54598" stroke-linecap="round" stroke-linejoin="round"/>
<path d="M272.365 319.079C251.921 355.564 218.744 368.949 208.083 373.868" stroke="#298DFF" stroke-width="1.54598" stroke-linecap="round" stroke-linejoin="round"/>
<mask id="path-43-inside-5_8011_6744" fill="white">
<path d="M406.483 99.8901L406.474 99.894V119.598L390.176 128.039V107.725L390.175 107.726V128.039L373.505 119.598V99.8911L373.555 99.9136L373.505 99.8901L390.511 91.3091L406.483 99.8901Z"/>
</mask>
<path d="M406.483 99.8901L406.474 99.894V119.598L390.176 128.039V107.725L390.175 107.726V128.039L373.505 119.598V99.8911L373.555 99.9136L373.505 99.8901L390.511 91.3091L406.483 99.8901Z" fill="#131518"/>
<path d="M406.483 99.8901L407.111 101.303L409.994 100.021L407.215 98.5283L406.483 99.8901ZM406.474 99.894L405.846 98.4814L404.928 98.8894V99.894H406.474ZM406.474 119.598L407.185 120.971L408.02 120.538V119.598H406.474ZM390.176 128.039H388.63V130.58L390.887 129.411L390.176 128.039ZM390.176 107.725H391.722V103.993L389.083 106.632L390.176 107.725ZM390.175 107.726L389.082 106.633L388.629 107.086V107.726H390.175ZM390.175 128.039L389.477 129.418L391.721 130.554V128.039H390.175ZM373.505 119.598H371.959V120.548L372.807 120.977L373.505 119.598ZM373.505 99.8911L374.141 98.4819L371.959 97.4981V99.8911H373.505ZM373.555 99.9136L372.92 101.323L374.213 98.5148L373.555 99.9136ZM373.505 99.8901L372.809 98.51L369.978 99.9386L372.847 101.289L373.505 99.8901ZM390.511 91.3091L391.243 89.9473L390.534 89.5662L389.815 89.9289L390.511 91.3091ZM406.483 99.8901L405.855 98.4775L405.846 98.4814L406.474 99.894L407.102 101.307L407.111 101.303L406.483 99.8901ZM406.474 99.894H404.928V119.598H406.474H408.02V99.894H406.474ZM406.474 119.598L405.763 118.225L389.465 126.666L390.176 128.039L390.887 129.411L407.185 120.971L406.474 119.598ZM390.176 128.039H391.722V107.725H390.176H388.63V128.039H390.176ZM390.176 107.725L389.083 106.632L389.082 106.633L390.175 107.726L391.268 108.819L391.269 108.818L390.176 107.725ZM390.175 107.726H388.629V128.039H390.175H391.721V107.726H390.175ZM390.175 128.039L390.874 126.659L374.204 118.219L373.505 119.598L372.807 120.977L389.477 129.418L390.175 128.039ZM373.505 119.598H375.051V99.8911H373.505H371.959V119.598H373.505ZM373.505 99.8911L372.87 101.3L372.92 101.323L373.555 99.9136L374.191 98.5043L374.141 98.4819L373.505 99.8911ZM373.555 99.9136L374.213 98.5148L374.164 98.4914L373.505 99.8901L372.847 101.289L372.897 101.312L373.555 99.9136ZM373.505 99.8901L374.202 101.27L391.208 92.6892L390.511 91.3091L389.815 89.9289L372.809 98.51L373.505 99.8901ZM390.511 91.3091L389.78 92.6709L405.751 101.252L406.483 99.8901L407.215 98.5283L391.243 89.9473L390.511 91.3091Z" fill="#298DFF" mask="url(#path-43-inside-5_8011_6744)"/>
<line x1="390.528" y1="107.047" x2="390.528" y2="127.376" stroke="#298DFF" stroke-width="1.54598"/>
<path d="M373.683 100.214L390.406 107.848" stroke="#298DFF" stroke-width="1.54598"/>
<path d="M406.484 100.214L389.761 107.848" stroke="#298DFF" stroke-width="1.54598"/>
<mask id="path-48-inside-6_8011_6744" fill="white">
<path d="M268.717 63.1558L268.708 63.1597V82.8638L252.411 91.3042V70.9907L252.41 70.9917V91.3042L235.74 82.8638V63.1567L235.79 63.1792L235.74 63.1558L252.746 54.5747L268.717 63.1558Z"/>
</mask>
<path d="M268.717 63.1558L268.708 63.1597V82.8638L252.411 91.3042V70.9907L252.41 70.9917V91.3042L235.74 82.8638V63.1567L235.79 63.1792L235.74 63.1558L252.746 54.5747L268.717 63.1558Z" fill="#131518"/>
<path d="M268.717 63.1558L269.345 64.5684L272.228 63.2871L269.449 61.7939L268.717 63.1558ZM268.708 63.1597L268.081 61.747L267.163 62.155V63.1597H268.708ZM268.708 82.8638L269.419 84.2365L270.254 83.8041V82.8638H268.708ZM252.411 91.3042H250.865V93.8457L253.122 92.6769L252.411 91.3042ZM252.411 70.9907H253.957V67.2585L251.318 69.8976L252.411 70.9907ZM252.41 70.9917L251.317 69.8986L250.864 70.3514V70.9917H252.41ZM252.41 91.3042L251.711 92.6834L253.956 93.8197V91.3042H252.41ZM235.74 82.8638H234.194V83.8138L235.041 84.243L235.74 82.8638ZM235.74 63.1567L236.375 61.7475L234.194 60.7637V63.1567H235.74ZM235.79 63.1792L235.154 64.5884L236.448 61.7804L235.79 63.1792ZM235.74 63.1558L235.043 61.7756L232.212 63.2042L235.081 64.5545L235.74 63.1558ZM252.746 54.5747L253.477 53.2129L252.768 52.8318L252.049 53.1945L252.746 54.5747ZM268.717 63.1558L268.089 61.7431L268.081 61.747L268.708 63.1597L269.336 64.5723L269.345 64.5684L268.717 63.1558ZM268.708 63.1597H267.163V82.8638H268.708H270.254V63.1597H268.708ZM268.708 82.8638L267.998 81.491L251.7 89.9314L252.411 91.3042L253.122 92.6769L269.419 84.2365L268.708 82.8638ZM252.411 91.3042H253.957V70.9907H252.411H250.865V91.3042H252.411ZM252.411 70.9907L251.318 69.8976L251.317 69.8986L252.41 70.9917L253.503 72.0848L253.504 72.0839L252.411 70.9907ZM252.41 70.9917H250.864V91.3042H252.41H253.956V70.9917H252.41ZM252.41 91.3042L253.108 89.925L236.438 81.4846L235.74 82.8638L235.041 84.243L251.711 92.6834L252.41 91.3042ZM235.74 82.8638H237.286V63.1567H235.74H234.194V82.8638H235.74ZM235.74 63.1567L235.104 64.566L235.154 64.5884L235.79 63.1792L236.425 61.77L236.375 61.7475L235.74 63.1567ZM235.79 63.1792L236.448 61.7804L236.398 61.757L235.74 63.1558L235.081 64.5545L235.131 64.578L235.79 63.1792ZM235.74 63.1558L236.436 64.5359L253.442 55.9549L252.746 54.5747L252.049 53.1945L235.043 61.7756L235.74 63.1558ZM252.746 54.5747L252.014 55.9365L267.986 64.5176L268.717 63.1558L269.449 61.7939L253.477 53.2129L252.746 54.5747Z" fill="#298DFF" mask="url(#path-48-inside-6_8011_6744)"/>
<line x1="252.763" y1="70.313" x2="252.763" y2="90.6416" stroke="#298DFF" stroke-width="1.54598"/>
<path d="M235.917 63.4795L252.641 71.1135" stroke="#298DFF" stroke-width="1.54598"/>
<path d="M268.719 63.4795L251.995 71.1135" stroke="#298DFF" stroke-width="1.54598"/>
</svg>
