<svg viewBox="0 0 720 360" xmlns="http://www.w3.org/2000/svg">
<rect width="720" height="360" fill="#0b1220"/>
<text x="50" y="24" fill="#e2e8f0" font-size="14" font-family="monospace">Floe Stratos — median equity curve per regime (NAV)</text>
<line x1="50" y1="281.9" x2="670" y2="281.9" stroke="#475569" stroke-width="1" stroke-dasharray="4 4"/>
<text x="50" y="277.9" fill="#64748b" font-size="10" font-family="monospace">initial deposit</text>
<path d="M50.0,281.9 L51.7,274.0 L53.4,275.6 L55.1,275.6 L56.8,275.6 L58.5,275.5 L60.2,275.5 L61.9,275.5 L63.6,272.3 L65.3,272.6 L67.0,272.6 L68.7,272.6 L70.4,272.6 L72.1,272.5 L73.8,272.5 L75.5,269.6 L77.2,270.1 L78.9,270.1 L80.6,270.0 L82.3,270.0 L84.0,266.9 L85.7,267.4 L87.4,267.4 L89.1,264.3 L90.8,264.8 L92.5,264.8 L94.2,264.8 L95.9,264.7 L97.6,264.7 L99.3,264.7 L101.0,261.6 L102.7,262.1 L104.4,263.8 L106.1,260.8 L107.8,260.9 L109.5,260.9 L111.2,260.9 L112.8,260.9 L114.5,257.8 L116.2,258.4 L117.9,258.3 L119.6,254.9 L121.3,255.5 L123.0,255.5 L124.7,255.4 L126.4,255.4 L128.1,255.4 L129.8,255.4 L131.5,251.9 L133.2,252.5 L134.9,252.5 L136.6,252.5 L138.3,249.1 L140.0,249.6 L141.7,249.6 L143.4,249.6 L145.1,246.2 L146.8,246.7 L148.5,246.7 L150.2,246.7 L151.9,246.7 L153.6,246.6 L155.3,246.6 L157.0,243.2 L158.7,243.7 L160.4,243.7 L162.1,243.7 L163.8,243.7 L165.5,243.6 L167.2,243.6 L168.9,240.4 L170.6,240.9 L172.3,240.9 L174.0,240.8 L175.7,240.8 L177.4,237.6 L179.1,238.2 L180.8,235.0 L182.5,235.5 L184.2,232.2 L185.9,232.7 L187.6,232.7 L189.3,232.7 L191.0,232.6 L192.7,229.3 L194.4,229.9 L196.1,229.8 L197.8,226.5 L199.5,227.0 L201.2,223.6 L202.9,224.1 L204.6,224.1 L206.3,224.1 L208.0,224.1 L209.7,224.0 L211.4,224.0 L213.1,220.6 L214.8,221.2 L216.5,221.1 L218.2,221.1 L219.9,221.1 L221.6,221.1 L223.3,221.0 L225.0,217.5 L226.7,218.1 L228.4,218.1 L230.1,218.1 L231.8,218.1 L233.5,218.0 L235.2,218.0 L236.8,214.7 L238.5,215.2 L240.2,215.2 L241.9,215.2 L243.6,215.2 L245.3,211.8 L247.0,212.4 L248.7,212.3 L250.4,212.3 L252.1,209.0 L253.8,209.6 L255.5,209.5 L257.2,206.1 L258.9,206.7 L260.6,215.5 L262.3,212.1 L264.0,212.1 L265.7,212.1 L267.4,212.0 L269.1,212.0 L270.8,212.0 L272.5,212.0 L274.2,208.4 L275.9,208.4 L277.6,208.4 L279.3,208.4 L281.0,208.3 L282.7,208.3 L284.4,208.3 L286.1,204.6 L287.8,204.9 L289.5,204.8 L291.2,204.8 L292.9,204.8 L294.6,204.8 L296.3,204.7 L298.0,200.9 L299.7,201.6 L301.4,201.6 L303.1,197.8 L304.8,198.4 L306.5,198.4 L308.2,198.4 L309.9,198.3 L311.6,198.3 L313.3,198.3 L315.0,194.6 L316.7,195.2 L318.4,191.3 L320.1,192.0 L321.8,191.9 L323.5,188.0 L325.2,188.7 L326.9,191.5 L328.6,187.5 L330.3,187.6 L332.0,187.6 L333.7,187.5 L335.4,183.6 L337.1,184.3 L338.8,184.3 L340.5,184.3 L342.2,184.2 L343.9,184.2 L345.6,180.3 L347.3,180.9 L349.0,180.9 L350.7,180.9 L352.4,180.9 L354.1,180.8 L355.8,180.8 L357.5,177.0 L359.2,177.6 L360.8,173.7 L362.5,174.3 L364.2,174.3 L365.9,174.3 L367.6,174.2 L369.3,170.5 L371.0,171.1 L372.7,171.1 L374.4,167.3 L376.1,167.9 L377.8,167.9 L379.5,167.9 L381.2,164.3 L382.9,164.9 L384.6,161.2 L386.3,161.8 L388.0,158.0 L389.7,158.6 L391.4,158.6 L393.1,154.8 L394.8,155.4 L396.5,155.4 L398.2,155.3 L399.9,151.4 L401.6,152.1 L403.3,152.1 L405.0,152.0 L406.7,148.1 L408.4,148.7 L410.1,168.8 L411.8,165.1 L413.5,165.0 L415.2,165.0 L416.9,165.0 L418.6,164.9 L420.3,161.0 L422.0,161.0 L423.7,161.0 L425.4,160.9 L427.1,160.9 L428.8,160.9 L430.5,156.9 L432.2,156.9 L433.9,156.8 L435.6,152.8 L437.3,152.8 L439.0,152.7 L440.7,152.7 L442.4,152.7 L444.1,152.7 L445.8,148.6 L447.5,148.6 L449.2,148.6 L450.9,148.6 L452.6,144.4 L454.3,145.1 L456.0,145.1 L457.7,145.1 L459.4,145.0 L461.1,145.0 L462.8,140.9 L464.5,141.6 L466.2,141.6 L467.9,141.5 L469.6,141.5 L471.3,141.5 L473.0,137.5 L474.7,138.2 L476.4,138.2 L478.1,134.2 L479.8,134.8 L481.5,134.8 L483.2,134.8 L484.8,134.7 L486.5,134.7 L488.2,134.7 L489.9,130.6 L491.6,131.3 L493.3,127.1 L495.0,127.8 L496.7,123.5 L498.4,124.2 L500.1,124.2 L501.8,119.9 L503.5,120.6 L505.2,120.6 L506.9,120.6 L508.6,120.6 L510.3,116.3 L512.0,117.0 L513.7,116.9 L515.4,116.9 L517.1,112.6 L518.8,113.3 L520.5,113.3 L522.2,113.3 L523.9,113.2 L525.6,113.2 L527.3,113.2 L529.0,108.9 L530.7,109.6 L532.4,114.2 L534.1,109.8 L535.8,109.8 L537.5,109.7 L539.2,109.7 L540.9,109.7 L542.6,109.6 L544.3,109.6 L546.0,105.4 L547.7,106.1 L549.4,106.1 L551.1,106.0 L552.8,101.8 L554.5,102.5 L556.2,98.2 L557.9,98.9 L559.6,98.8 L561.3,98.8 L563.0,98.8 L564.7,98.7 L566.4,98.7 L568.1,94.3 L569.8,95.0 L571.5,95.0 L573.2,95.0 L574.9,95.0 L576.6,90.4 L578.3,91.2 L580.0,91.1 L581.7,86.5 L583.4,87.3 L585.1,87.3 L586.8,87.2 L588.5,87.2 L590.2,82.7 L591.9,83.5 L593.6,83.4 L595.3,78.8 L597.0,79.6 L598.7,79.6 L600.4,74.9 L602.1,75.6 L603.8,75.6 L605.5,75.6 L607.2,75.5 L608.8,75.5 L610.5,75.5 L612.2,70.8 L613.9,71.6 L615.6,71.5 L617.3,66.8 L619.0,67.6 L620.7,67.5 L622.4,67.5 L624.1,67.5 L625.8,67.4 L627.5,67.4 L629.2,62.8 L630.9,63.6 L632.6,63.5 L634.3,63.5 L636.0,58.8 L637.7,59.5 L639.4,59.5 L641.1,59.5 L642.8,59.4 L644.5,63.9 L646.2,59.1 L647.9,59.1 L649.6,59.1 L651.3,59.0 L653.0,59.0 L654.7,54.1 L656.4,55.0 L658.1,54.9 L659.8,54.9 L661.5,54.9 L663.2,54.8 L664.9,54.8 L666.6,50.0 L668.3,50.8 L670.0,76.9" fill="none" stroke="#34d399" stroke-width="2"/><text x="674" y="76.9" fill="#34d399" font-size="11" font-family="monospace">bull</text><path d="M50.0,281.9 L51.7,275.9 L53.4,282.5 L55.1,278.7 L56.8,278.7 L58.5,278.7 L60.2,278.7 L61.9,278.7 L63.6,278.6 L65.3,278.6 L67.0,275.5 L68.7,275.5 L70.4,275.5 L72.1,275.5 L73.8,275.5 L75.5,272.4 L77.2,273.0 L78.9,273.0 L80.6,272.9 L82.3,272.9 L84.0,269.8 L85.7,270.3 L87.4,270.3 L89.1,270.2 L90.8,266.9 L92.5,267.5 L94.2,267.5 L95.9,267.4 L97.6,267.4 L99.3,267.4 L101.0,267.4 L102.7,264.1 L104.4,264.6 L106.1,261.4 L107.8,261.9 L109.5,261.9 L111.2,261.9 L112.8,258.5 L114.5,259.1 L116.2,259.1 L117.9,259.0 L119.6,259.0 L121.3,255.6 L123.0,256.2 L124.7,256.2 L126.4,256.1 L128.1,256.1 L129.8,252.6 L131.5,253.2 L133.2,253.2 L134.9,249.7 L136.6,250.2 L138.3,250.2 L140.0,250.2 L141.7,250.2 L143.4,246.7 L145.1,247.3 L146.8,243.8 L148.5,244.4 L150.2,244.3 L151.9,244.3 L153.6,244.3 L155.3,244.3 L157.0,244.2 L158.7,240.7 L160.4,241.3 L162.1,241.3 L163.8,241.7 L165.5,238.2 L167.2,238.7 L168.9,238.6 L170.6,238.6 L172.3,238.6 L174.0,238.6 L175.7,238.6 L177.4,235.1 L179.1,235.7 L180.8,235.7 L182.5,235.6 L184.2,235.6 L185.9,235.6 L187.6,235.6 L189.3,232.1 L191.0,232.7 L192.7,232.6 L194.4,232.6 L196.1,232.6 L197.8,229.2 L199.5,229.7 L201.2,229.7 L202.9,226.3 L204.6,226.8 L206.3,223.3 L208.0,223.9 L209.7,223.9 L211.4,223.9 L213.1,220.3 L214.8,220.9 L216.5,220.9 L218.2,220.9 L219.9,220.8 L221.6,220.8 L223.3,220.8 L225.0,217.2 L226.7,217.8 L228.4,224.8 L230.1,221.3 L231.8,221.2 L233.5,221.2 L235.2,221.2 L236.8,221.2 L238.5,217.6 L240.2,217.6 L241.9,217.5 L243.6,213.7 L245.3,214.4 L247.0,214.4 L248.7,214.4 L250.4,214.3 L252.1,214.3 L253.8,210.6 L255.5,211.2 L257.2,207.5 L258.9,208.1 L260.6,208.1 L262.3,204.3 L264.0,205.0 L265.7,204.9 L267.4,204.9 L269.1,201.1 L270.8,201.7 L272.5,201.7 L274.2,201.7 L275.9,197.9 L277.6,198.5 L279.3,198.5 L281.0,198.5 L282.7,198.4 L284.4,198.4 L286.1,194.6 L287.8,195.3 L289.5,195.2 L291.2,191.4 L292.9,192.0 L294.6,192.0 L296.3,211.0 L298.0,207.5 L299.7,207.4 L301.4,207.4 L303.1,207.4 L304.8,207.4 L306.5,203.8 L308.2,203.8 L309.9,204.8 L311.6,201.2 L313.3,201.2 L315.0,201.2 L316.7,197.5 L318.4,197.5 L320.1,197.5 L321.8,197.4 L323.5,197.4 L325.2,197.4 L326.9,197.4 L328.6,193.6 L330.3,193.6 L332.0,193.5 L333.7,193.5 L335.4,189.7 L337.1,190.0 L338.8,190.0 L340.5,190.0 L342.2,189.9 L343.9,189.9 L345.6,189.9 L347.3,186.2 L349.0,186.9 L350.7,186.9 L352.4,186.8 L354.1,186.8 L355.8,183.2 L357.5,183.7 L359.2,179.9 L360.8,180.6 L362.5,180.5 L364.2,180.5 L365.9,180.5 L367.6,176.8 L369.3,177.4 L371.0,177.4 L372.7,177.3 L374.4,177.3 L376.1,177.3 L377.8,177.3 L379.5,173.6 L381.2,174.2 L382.9,174.2 L384.6,170.4 L386.3,171.0 L388.0,167.1 L389.7,193.6 L391.4,189.8 L393.1,189.8 L394.8,189.8 L396.5,185.9 L398.2,185.8 L399.9,181.8 L401.6,181.8 L403.3,181.8 L405.0,181.8 L406.7,181.7 L408.4,181.7 L410.1,181.7 L411.8,177.7 L413.5,177.7 L415.2,177.6 L416.9,177.6 L418.6,177.6 L420.3,177.6 L422.0,177.5 L423.7,173.4 L425.4,173.4 L427.1,173.4 L428.8,173.4 L430.5,173.3 L432.2,173.3 L433.9,173.3 L435.6,169.2 L437.3,169.2 L439.0,169.2 L440.7,165.4 L442.4,165.8 L444.1,165.7 L445.8,165.7 L447.5,161.9 L449.2,162.6 L450.9,162.6 L452.6,158.8 L454.3,159.4 L456.0,155.5 L457.7,156.1 L459.4,156.1 L461.1,156.1 L462.8,156.1 L464.5,156.0 L466.2,156.0 L467.9,151.9 L469.6,152.6 L471.3,152.6 L473.0,152.6 L474.7,152.6 L476.4,152.5 L478.1,152.5 L479.8,148.4 L481.5,149.1 L483.2,149.1 L484.8,149.0 L486.5,152.8 L488.2,148.5 L489.9,148.5 L491.6,144.1 L493.3,144.9 L495.0,144.9 L496.7,144.9 L498.4,144.9 L500.1,144.8 L501.8,144.8 L503.5,140.4 L505.2,141.1 L506.9,141.1 L508.6,141.1 L510.3,136.8 L512.0,137.5 L513.7,137.5 L515.4,133.1 L517.1,133.8 L518.8,129.4 L520.5,130.2 L522.2,150.4 L523.9,146.2 L525.6,146.2 L527.3,141.8 L529.0,141.8 L530.7,141.8 L532.4,141.7 L534.1,141.7 L535.8,141.7 L537.5,141.6 L539.2,137.3 L540.9,137.3 L542.6,137.3 L544.3,132.8 L546.0,132.8 L547.7,132.8 L549.4,128.2 L551.1,128.4 L552.8,128.4 L554.5,123.8 L556.2,124.7 L557.9,124.6 L559.6,124.6 L561.3,124.6 L563.0,124.5 L564.7,124.5 L566.4,119.9 L568.1,120.6 L569.8,116.0 L571.5,116.7 L573.2,116.7 L574.9,116.7 L576.6,112.2 L578.3,112.9 L580.0,112.9 L581.7,112.9 L583.4,112.9 L585.1,112.8 L586.8,112.8 L588.5,108.4 L590.2,109.1 L591.9,104.6 L593.6,105.3 L595.3,105.3 L597.0,100.8 L598.7,101.5 L600.4,101.5 L602.1,101.5 L603.8,101.4 L605.5,97.0 L607.2,97.7 L608.8,97.7 L610.5,97.6 L612.2,97.6 L613.9,97.6 L615.6,97.5 L617.3,93.1 L619.0,93.8 L620.7,89.4 L622.4,98.4 L624.1,93.9 L625.8,93.9 L627.5,89.2 L629.2,89.2 L630.9,89.2 L632.6,84.4 L634.3,85.4 L636.0,85.3 L637.7,85.3 L639.4,85.3 L641.1,85.2 L642.8,85.2 L644.5,80.4 L646.2,81.2 L647.9,81.1 L649.6,81.1 L651.3,81.1 L653.0,81.1 L654.7,81.0 L656.4,76.2 L658.1,77.0 L659.8,77.0 L661.5,77.0 L663.2,72.1 L664.9,72.9 L666.6,72.9 L668.3,72.9 L670.0,72.8" fill="none" stroke="#f87171" stroke-width="2"/><text x="674" y="72.8" fill="#f87171" font-size="11" font-family="monospace">bear</text><path d="M50.0,281.9 L51.7,277.0 L53.4,278.0 L55.1,293.8 L56.8,291.2 L58.5,291.2 L60.2,291.1 L61.9,291.1 L63.6,288.5 L65.3,288.4 L67.0,288.4 L68.7,285.8 L70.4,285.8 L72.1,285.7 L73.8,283.0 L75.5,283.0 L77.2,282.9 L78.9,282.9 L80.6,282.9 L82.3,282.9 L84.0,282.8 L85.7,280.1 L87.4,280.1 L89.1,280.1 L90.8,280.1 L92.5,280.0 L94.2,280.0 L95.9,280.0 L97.6,277.3 L99.3,277.3 L101.0,277.2 L102.7,274.5 L104.4,275.0 L106.1,275.0 L107.8,274.9 L109.5,274.9 L111.2,274.9 L112.8,272.2 L114.5,272.7 L116.2,275.6 L117.9,272.8 L119.6,272.8 L121.3,272.8 L123.0,272.8 L124.7,270.0 L126.4,270.4 L128.1,270.4 L129.8,270.4 L131.5,267.5 L133.2,268.0 L134.9,267.9 L136.6,267.9 L138.3,267.9 L140.0,267.9 L141.7,267.9 L143.4,264.9 L145.1,265.4 L146.8,265.4 L148.5,265.4 L150.2,265.4 L151.9,265.4 L153.6,265.3 L155.3,262.4 L157.0,262.9 L158.7,262.9 L160.4,262.9 L162.1,262.8 L163.8,262.8 L165.5,262.8 L167.2,260.0 L168.9,260.4 L170.6,260.4 L172.3,260.4 L174.0,260.4 L175.7,260.4 L177.4,260.3 L179.1,257.6 L180.8,258.1 L182.5,258.1 L184.2,258.0 L185.9,258.0 L187.6,258.0 L189.3,255.4 L191.0,255.8 L192.7,255.8 L194.4,255.8 L196.1,253.1 L197.8,253.5 L199.5,253.5 L201.2,253.5 L202.9,253.5 L204.6,250.7 L206.3,251.1 L208.0,251.1 L209.7,251.1 L211.4,251.1 L213.1,248.3 L214.8,248.7 L216.5,245.9 L218.2,246.3 L219.9,246.3 L221.6,243.3 L223.3,243.8 L225.0,243.8 L226.7,243.8 L228.4,243.8 L230.1,243.7 L231.8,243.7 L233.5,240.7 L235.2,241.2 L236.8,241.2 L238.5,241.2 L240.2,241.1 L241.9,238.0 L243.6,238.5 L245.3,238.5 L247.0,238.5 L248.7,235.4 L250.4,235.9 L252.1,235.9 L253.8,235.9 L255.5,232.7 L257.2,233.2 L258.9,233.2 L260.6,233.2 L262.3,233.1 L264.0,233.1 L265.7,233.1 L267.4,229.9 L269.1,230.5 L270.8,230.5 L272.5,227.3 L274.2,227.8 L275.9,227.8 L277.6,227.8 L279.3,224.6 L281.0,225.1 L282.7,225.1 L284.4,225.1 L286.1,221.9 L287.8,222.4 L289.5,222.4 L291.2,222.4 L292.9,222.3 L294.6,222.3 L296.3,222.3 L298.0,219.2 L299.7,219.7 L301.4,219.7 L303.1,219.6 L304.8,219.6 L306.5,219.6 L308.2,219.6 L309.9,216.5 L311.6,217.0 L313.3,217.0 L315.0,213.8 L316.7,214.3 L318.4,214.3 L320.1,214.3 L321.8,214.3 L323.5,214.3 L325.2,211.0 L326.9,211.6 L328.6,211.6 L330.3,208.3 L332.0,208.9 L333.7,208.8 L335.4,205.5 L337.1,206.1 L338.8,206.0 L340.5,206.0 L342.2,206.0 L343.9,202.7 L345.6,203.2 L347.3,199.8 L349.0,200.4 L350.7,200.3 L352.4,200.3 L354.1,200.3 L355.8,200.3 L357.5,200.2 L359.2,196.8 L360.8,197.3 L362.5,197.3 L364.2,197.3 L365.9,197.3 L367.6,197.2 L369.3,197.2 L371.0,193.7 L372.7,194.3 L374.4,194.3 L376.1,190.8 L377.8,191.3 L379.5,191.3 L381.2,191.3 L382.9,191.2 L384.6,191.2 L386.3,191.2 L388.0,187.6 L389.7,188.2 L391.4,188.2 L393.1,188.1 L394.8,188.1 L396.5,188.1 L398.2,188.1 L399.9,184.4 L401.6,185.0 L403.3,185.0 L405.0,181.4 L406.7,181.9 L408.4,181.9 L410.1,178.3 L411.8,178.9 L413.5,178.9 L415.2,175.1 L416.9,175.7 L418.6,175.7 L420.3,175.7 L422.0,172.0 L423.7,172.6 L425.4,172.6 L427.1,172.6 L428.8,172.5 L430.5,168.8 L432.2,169.5 L433.9,169.4 L435.6,165.8 L437.3,166.4 L439.0,162.8 L440.7,163.4 L442.4,163.3 L444.1,163.3 L445.8,163.3 L447.5,159.7 L449.2,160.3 L450.9,160.3 L452.6,156.6 L454.3,157.2 L456.0,157.2 L457.7,157.2 L459.4,157.1 L461.1,157.1 L462.8,157.1 L464.5,153.4 L466.2,154.0 L467.9,154.0 L469.6,154.0 L471.3,150.3 L473.0,150.9 L474.7,150.9 L476.4,150.9 L478.1,150.8 L479.8,150.8 L481.5,147.2 L483.2,147.8 L484.8,147.8 L486.5,144.1 L488.2,144.7 L489.9,144.7 L491.6,141.0 L493.3,141.6 L495.0,141.6 L496.7,141.5 L498.4,151.4 L500.1,147.9 L501.8,147.9 L503.5,147.8 L505.2,147.8 L506.9,147.8 L508.6,147.8 L510.3,147.7 L512.0,144.2 L513.7,144.2 L515.4,144.1 L517.1,144.1 L518.8,144.1 L520.5,144.1 L522.2,144.0 L523.9,140.4 L525.6,140.5 L527.3,140.5 L529.0,140.5 L530.7,140.4 L532.4,140.4 L534.1,140.4 L535.8,136.8 L537.5,137.5 L539.2,137.5 L540.9,137.5 L542.6,137.4 L544.3,137.4 L546.0,133.7 L547.7,134.3 L549.4,134.3 L551.1,134.2 L552.8,134.2 L554.5,134.2 L556.2,130.4 L557.9,131.0 L559.6,127.2 L561.3,127.8 L563.0,127.8 L564.7,127.7 L566.4,127.7 L568.1,127.7 L569.8,127.6 L571.5,123.8 L573.2,124.5 L574.9,120.6 L576.6,121.3 L578.3,121.2 L580.0,121.2 L581.7,121.2 L583.4,121.1 L585.1,121.1 L586.8,117.1 L588.5,117.8 L590.2,117.8 L591.9,117.8 L593.6,117.7 L595.3,113.7 L597.0,114.4 L598.7,114.4 L600.4,114.3 L602.1,114.3 L603.8,114.3 L605.5,114.2 L607.2,110.3 L608.8,111.0 L610.5,111.0 L612.2,110.9 L613.9,110.9 L615.6,110.9 L617.3,110.8 L619.0,107.0 L620.7,107.6 L622.4,107.6 L624.1,107.6 L625.8,103.6 L627.5,104.3 L629.2,104.2 L630.9,104.2 L632.6,104.2 L634.3,100.2 L636.0,100.9 L637.7,96.9 L639.4,97.5 L641.1,97.5 L642.8,97.5 L644.5,97.4 L646.2,93.5 L647.9,94.1 L649.6,90.1 L651.3,90.7 L653.0,90.7 L654.7,90.7 L656.4,86.4 L658.1,87.1 L659.8,87.1 L661.5,87.1 L663.2,87.1 L664.9,82.7 L666.6,83.4 L668.3,83.4 L670.0,83.3" fill="none" stroke="#60a5fa" stroke-width="2"/><text x="674" y="83.3" fill="#60a5fa" font-size="11" font-family="monospace">chop</text><path d="M50.0,281.9 L51.7,274.3 L53.4,275.8 L55.1,275.8 L56.8,275.8 L58.5,275.8 L60.2,272.4 L61.9,272.7 L63.6,272.7 L65.3,294.1 L67.0,290.8 L68.7,290.8 L70.4,290.8 L72.1,290.8 L73.8,287.6 L75.5,287.5 L77.2,284.3 L78.9,284.3 L80.6,280.9 L82.3,280.9 L84.0,280.9 L85.7,280.9 L87.4,277.6 L89.1,277.5 L90.8,277.5 L92.5,274.1 L94.2,274.0 L95.9,274.0 L97.6,274.0 L99.3,270.3 L101.0,270.7 L102.7,270.6 L104.4,270.6 L106.1,310.0 L107.8,306.6 L109.5,306.6 L111.2,306.6 L112.8,306.5 L114.5,306.5 L116.2,303.0 L117.9,303.0 L119.6,299.3 L121.3,299.3 L123.0,299.2 L124.7,295.4 L126.4,295.4 L128.1,295.3 L129.8,295.3 L131.5,291.4 L133.2,291.4 L134.9,291.4 L136.6,291.3 L138.3,291.3 L140.0,287.3 L141.7,287.3 L143.4,283.1 L145.1,283.1 L146.8,283.1 L148.5,278.9 L150.2,278.9 L151.9,274.6 L153.6,274.6 L155.3,274.6 L157.0,274.5 L158.7,274.5 L160.4,274.5 L162.1,270.7 L163.8,270.7 L165.5,270.7 L167.2,270.6 L168.9,270.6 L170.6,270.6 L172.3,270.6 L174.0,267.1 L175.7,267.7 L177.4,264.1 L179.1,264.7 L180.8,264.7 L182.5,261.0 L184.2,261.6 L185.9,257.9 L187.6,258.5 L189.3,258.5 L191.0,263.7 L192.7,260.1 L194.4,260.1 L196.1,260.1 L197.8,256.5 L199.5,256.7 L201.2,253.1 L202.9,253.8 L204.6,253.7 L206.3,253.7 L208.0,250.1 L209.7,250.7 L211.4,250.7 L213.1,250.7 L214.8,246.9 L216.5,247.5 L218.2,247.5 L219.9,247.5 L221.6,247.5 L223.3,247.4 L225.0,247.4 L226.7,243.6 L228.4,244.2 L230.1,240.4 L231.8,241.0 L233.5,241.0 L235.2,240.9 L236.8,251.6 L238.5,247.8 L240.2,247.8 L241.9,247.8 L243.6,244.0 L245.3,244.0 L247.0,243.9 L248.7,240.0 L250.4,240.0 L252.1,240.0 L253.8,240.0 L255.5,240.0 L257.2,240.0 L258.9,239.9 L260.6,235.9 L262.3,236.7 L264.0,232.8 L265.7,233.4 L267.4,233.3 L269.1,233.3 L270.8,233.3 L272.5,233.3 L274.2,229.4 L275.9,230.0 L277.6,225.9 L279.3,226.6 L281.0,222.5 L282.7,223.2 L284.4,287.1 L286.1,283.8 L287.8,283.7 L289.5,283.7 L291.2,280.2 L292.9,280.2 L294.6,280.2 L296.3,289.7 L298.0,286.4 L299.7,286.4 L301.4,286.3 L303.1,286.3 L304.8,286.3 L306.5,282.9 L308.2,282.8 L309.9,282.8 L311.6,282.8 L313.3,282.8 L315.0,282.7 L316.7,279.3 L318.4,279.2 L320.1,279.2 L321.8,279.2 L323.5,275.6 L325.2,275.6 L326.9,272.0 L328.6,272.0 L330.3,271.9 L332.0,271.9 L333.7,268.3 L335.4,268.2 L337.1,268.2 L338.8,268.2 L340.5,268.2 L342.2,268.1 L343.9,265.1 L345.6,265.1 L347.3,265.1 L349.0,262.0 L350.7,262.0 L352.4,262.0 L354.1,262.0 L355.8,258.9 L357.5,258.8 L359.2,258.8 L360.8,258.8 L362.5,255.5 L364.2,255.4 L365.9,255.4 L367.6,255.4 L369.3,252.0 L371.0,252.0 L372.7,252.0 L374.4,251.9 L376.1,248.4 L377.8,248.3 L379.5,248.3 L381.2,248.3 L382.9,244.7 L384.6,244.7 L386.3,244.6 L388.0,244.6 L389.7,244.6 L391.4,244.6 L393.1,240.8 L394.8,240.7 L396.5,240.7 L398.2,240.7 L399.9,236.7 L401.6,236.7 L403.3,232.5 L405.0,232.5 L406.7,228.1 L408.4,228.1 L410.1,228.1 L411.8,223.6 L413.5,223.6 L415.2,223.5 L416.9,223.5 L418.6,224.5 L420.3,220.1 L422.0,235.3 L423.7,230.9 L425.4,230.8 L427.1,226.4 L428.8,226.4 L430.5,226.4 L432.2,226.4 L433.9,221.8 L435.6,221.7 L437.3,221.7 L439.0,217.0 L440.7,240.4 L442.4,235.9 L444.1,235.8 L445.8,235.8 L447.5,235.8 L449.2,235.8 L450.9,235.7 L452.6,235.7 L454.3,231.4 L456.0,231.4 L457.7,231.4 L459.4,231.3 L461.1,231.3 L462.8,231.3 L464.5,231.3 L466.2,227.0 L467.9,227.0 L469.6,226.9 L471.3,222.6 L473.0,222.6 L474.7,218.3 L476.4,218.3 L478.1,218.3 L479.8,218.3 L481.5,213.8 L483.2,214.5 L484.8,209.9 L486.5,210.7 L488.2,210.7 L489.9,206.0 L491.6,206.8 L493.3,206.7 L495.0,202.3 L496.7,203.0 L498.4,203.0 L500.1,198.5 L501.8,199.3 L503.5,199.2 L505.2,199.2 L506.9,199.2 L508.6,204.9 L510.3,200.3 L512.0,200.3 L513.7,200.2 L515.4,200.2 L517.1,195.5 L518.8,196.1 L520.5,191.1 L522.2,192.0 L523.9,191.9 L525.6,191.9 L527.3,191.9 L529.0,191.9 L530.7,191.8 L532.4,187.0 L534.1,187.8 L535.8,187.7 L537.5,187.7 L539.2,187.7 L540.9,182.9 L542.6,183.7 L544.3,179.0 L546.0,179.7 L547.7,179.7 L549.4,179.7 L551.1,179.6 L552.8,174.8 L554.5,175.6 L556.2,170.7 L557.9,171.5 L559.6,166.6 L561.3,167.4 L563.0,167.3 L564.7,162.3 L566.4,163.2 L568.1,163.1 L569.8,163.1 L571.5,163.1 L573.2,163.1 L574.9,163.0 L576.6,158.3 L578.3,159.1 L580.0,154.2 L581.7,155.0 L583.4,186.6 L585.1,181.8 L586.8,181.8 L588.5,181.7 L590.2,181.7 L591.9,181.7 L593.6,181.6 L595.3,176.8 L597.0,176.8 L598.7,176.8 L600.4,176.7 L602.1,171.9 L603.8,171.9 L605.5,171.8 L607.2,171.8 L608.8,166.9 L610.5,166.9 L612.2,166.8 L613.9,166.8 L615.6,161.8 L617.3,161.8 L619.0,161.7 L620.7,161.7 L622.4,156.5 L624.1,156.5 L625.8,156.5 L627.5,156.4 L629.2,156.4 L630.9,156.4 L632.6,156.4 L634.3,151.9 L636.0,152.3 L637.7,152.3 L639.4,152.3 L641.1,147.8 L642.8,148.6 L644.5,144.1 L646.2,160.9 L647.9,156.4 L649.6,156.4 L651.3,151.8 L653.0,151.8 L654.7,151.7 L656.4,151.7 L658.1,151.7 L659.8,151.6 L661.5,151.6 L663.2,147.1 L664.9,147.1 L666.6,147.0 L668.3,147.0 L670.0,147.0" fill="none" stroke="#fbbf24" stroke-width="2"/><text x="674" y="147.0" fill="#fbbf24" font-size="11" font-family="monospace">crash</text>
</svg>