<svg xmlns="http://www.w3.org/2000/svg" viewBox="0 0 250 96" width="250" height="96" role="img" aria-label="floe">
  <defs>
    <linearGradient id="hProvenL" x1="50" y1="42" x2="38" y2="94" gradientUnits="userSpaceOnUse"><stop offset="0" stop-color="#6df8ea"/><stop offset="1" stop-color="#1ac6b6"/></linearGradient>
    <linearGradient id="hProvenR" x1="62" y1="42" x2="55" y2="94" gradientUnits="userSpaceOnUse"><stop offset="0" stop-color="#19c2b3"/><stop offset="1" stop-color="#0a665f"/></linearGradient>
    <linearGradient id="hFrostL" x1="50" y1="8" x2="32" y2="42" gradientUnits="userSpaceOnUse"><stop offset="0" stop-color="#d2faf4" stop-opacity="0.78"/><stop offset="1" stop-color="#74ebde" stop-opacity="0.48"/></linearGradient>
    <linearGradient id="hFrostR" x1="50" y1="8" x2="70" y2="42" gradientUnits="userSpaceOnUse"><stop offset="0" stop-color="#b6f4ec" stop-opacity="0.56"/><stop offset="1" stop-color="#56ddd0" stop-opacity="0.30"/></linearGradient>
  </defs>
  <g transform="translate(8,16) scale(0.64)">
    <polygon points="50,8 15,42 50,42" fill="url(#hFrostL)"/>
    <polygon points="50,8 85,42 50,42" fill="url(#hFrostR)"/>
    <polygon points="15,42 50,42 50,94" fill="url(#hProvenL)"/>
    <polygon points="85,42 50,42 50,94" fill="url(#hProvenR)"/>
    <g fill="none" stroke="#eafffb" stroke-opacity="0.20" stroke-width="0.9" stroke-linejoin="round"><polygon points="50,8 85,42 50,94 15,42"/><line x1="50" y1="8" x2="50" y2="94"/></g>
    <rect x="5" y="38.6" width="90" height="6.8" rx="3.4" fill="#34e6d6" fill-opacity="0.22"/>
    <rect x="8" y="40.4" width="84" height="3.2" rx="1.6" fill="#eafffb"/>
  </g>
  <text x="82" y="64" font-family="'Space Grotesk', sans-serif" font-weight="700" font-size="52" letter-spacing="-2.4" fill="#eaf6fb">floe</text>
</svg>
